<?xml version="1.0" encoding="UTF-8"?>
<!-- Generator: visioncortex VTracer 0.6.3 -->
<svg version="1.1" xmlns="http://www.w3.org/2000/svg" width="512" height="517">
<path d="M0 0 C1.38 1.16 2.73 2.35 4.06 3.56 C4.82 4.24 5.58 4.92 6.36 5.61 C20.31 18.78 28.22 37.18 29.27 56.25 C29.53 77.9 21.73 95.1 11.47 113.73 C8.38 119.46 6.16 124.01 6.06 130.56 C6.87 133.53 6.87 133.53 9.06 135.56 C14.63 137.79 17.53 137.56 23.01 135.28 C23.69 135.01 24.37 134.73 25.06 134.45 C26.58 133.84 28.09 133.22 29.59 132.59 C32.21 131.5 34.84 130.45 37.48 129.41 C42.54 127.41 47.59 125.39 52.64 123.36 C55.94 122.04 59.23 120.72 62.53 119.4 C71.76 115.71 80.98 112.01 90.19 108.26 C93.38 106.97 96.56 105.68 99.75 104.39 C101.87 103.53 103.98 102.66 106.1 101.79 C124.12 94.45 140.6 91.33 159.2 98.83 C172.17 105.03 183.65 116.14 189.06 129.56 C189.47 130.53 189.88 131.5 190.3 132.5 C195.15 145.81 194.7 160.58 189.06 173.56 C183.29 185.54 174.07 193.86 163.68 201.77 C159.59 204.9 155.67 208.22 151.76 211.58 C148.31 214.53 144.78 217.34 141.19 220.12 C131.67 227.92 124.87 239.27 123.06 251.56 C122.24 263.2 123.44 272.67 127.39 283.6 C128.52 286.9 129.42 290.25 130.31 293.62 C130.63 294.79 130.94 295.96 131.27 297.16 C137.38 323.28 131.93 351.56 118.19 374.35 C114.83 379.42 111.13 384.04 107.06 388.56 C106.35 389.37 105.64 390.18 104.9 391.01 C84.47 412.8 55.57 426.38 25.76 427.52 C4.78 427.94 -13.73 422.7 -31.94 412.56 C-32.9 412.04 -33.86 411.52 -34.86 410.98 C-46.49 404.18 -56.37 393.86 -64.94 383.56 C-73.8 373.2 -81.63 365.83 -95.65 364.26 C-98.42 364.13 -101.17 364.1 -103.94 364.12 C-104.86 364.11 -105.78 364.09 -106.73 364.06 C-118.99 364.07 -129.09 370.53 -139.69 376.06 C-141.07 376.78 -142.45 377.49 -143.82 378.21 C-151.92 382.41 -159.95 386.72 -167.94 391.12 C-188.69 402.55 -208.49 411.28 -232.56 404.94 C-250.73 398.77 -263.34 387.29 -272.5 370.75 C-280.25 354.93 -281.4 336.92 -276.25 320.15 C-271.88 308.2 -265.88 299.45 -256.94 290.56 C-255.76 289.36 -254.58 288.15 -253.4 286.95 C-248.73 282.2 -244.07 277.5 -239.02 273.15 C-234.74 269.45 -230.77 265.48 -226.81 261.44 C-219.3 253.78 -219.3 253.78 -215.57 250.82 C-211.89 247.67 -211.1 246.03 -210.57 241.24 C-210.4 231.7 -211.45 224.5 -218.08 217.21 C-221.72 213.84 -225.57 210.83 -229.5 207.81 C-230.3 207.19 -231.1 206.57 -231.93 205.94 C-238.76 200.67 -245.65 195.49 -252.57 190.35 C-267.18 179.45 -280.02 167.12 -283.62 148.39 C-285.82 128.95 -282.19 111.98 -269.81 96.38 C-259.36 85.2 -245.02 78.33 -229.75 77.36 C-207.19 77.05 -192.01 87.57 -173.94 99.56 C-170.88 101.59 -167.82 103.61 -164.75 105.62 C-163.76 106.29 -163.76 106.29 -162.76 106.96 C-156.64 110.97 -149.63 115.44 -142.05 115.02 C-136.83 113.9 -131.47 111.73 -128.33 107.29 C-126.83 104.35 -126.54 102.57 -126.48 99.29 C-126.45 98.26 -126.42 97.23 -126.4 96.17 C-126.38 95.07 -126.36 93.96 -126.35 92.82 C-126.28 90.45 -126.22 88.08 -126.16 85.71 C-126.08 81.99 -126 78.28 -125.93 74.57 C-125.43 50.61 -123.13 30.46 -106.94 11.56 C-106.49 10.97 -106.05 10.38 -105.59 9.78 C-80.76 -22.09 -30.6 -22.84 0 0 Z " fill="#000000" transform="translate(297.9375,82.4375)"/>
<path d="M0 0 C9.61 9.34 13.61 19.82 13.98 33.06 C14.19 56.42 5.68 75.04 -10.38 91.81 C-10.95 92.45 -11.52 93.09 -12.12 93.75 C-21.38 103.7 -35.2 111.16 -48.86 112.04 C-61.76 112.33 -72.59 109.86 -82.38 101 C-92.89 89.73 -94.99 76.79 -94.68 61.98 C-93.72 40.44 -82.38 21.22 -67.12 6.5 C-48.27 -9.87 -20.83 -17.64 0 0 Z " fill="#000000" transform="translate(493.375,17.1875)"/>
<path d="M0 0 C6.91 5.67 11.94 12.07 16 20 C16.58 21.11 16.58 21.11 17.18 22.24 C22.36 32.87 23.18 44.27 20.32 55.73 C17.58 63.58 12.42 70.48 5 74.44 C-5.5 78.87 -15.44 79.03 -26.19 74.94 C-40.83 68.22 -49.94 56.57 -56 42 C-59.45 31.44 -59.78 18.63 -55.32 8.36 C-50.5 -0.27 -43.43 -5.61 -33.94 -8.31 C-21.03 -10.57 -10.87 -7.13 0 0 Z " fill="#000000" transform="translate(63,30)"/>
</svg>
